<svg width="25" height="24" viewBox="0 0 25 24" fill="none" xmlns="http://www.w3.org/2000/svg">
<g clip-path="url(#clip0_239_128)">
<path d="M6.25 0.75C6.25 0.551088 6.16769 0.360322 6.02118 0.21967C5.87466 0.0790176 5.67595 0 5.46875 0C5.26155 0 5.06284 0.0790176 4.91632 0.21967C4.76981 0.360322 4.6875 0.551088 4.6875 0.75V1.5H3.125C2.2962 1.5 1.50134 1.81607 0.915291 2.37868C0.32924 2.94129 0 3.70435 0 4.5L0 21C0 21.7956 0.32924 22.5587 0.915291 23.1213C1.50134 23.6839 2.2962 24 3.125 24H21.875C22.7038 24 23.4987 23.6839 24.0847 23.1213C24.6708 22.5587 25 21.7956 25 21V4.5C25 3.70435 24.6708 2.94129 24.0847 2.37868C23.4987 1.81607 22.7038 1.5 21.875 1.5H20.3125V0.75C20.3125 0.551088 20.2302 0.360322 20.0837 0.21967C19.9372 0.0790176 19.7385 0 19.5312 0C19.324 0 19.1253 0.0790176 18.9788 0.21967C18.8323 0.360322 18.75 0.551088 18.75 0.75V1.5H6.25V0.75ZM3.97656 4.5H21.0234C21.4922 4.5 21.875 4.836 21.875 5.25V6.75C21.875 7.164 21.4938 7.5 21.0219 7.5H3.97656C3.50781 7.5 3.125 7.164 3.125 6.75V5.25C3.125 4.836 3.50625 4.5 3.97656 4.5Z" fill="white" fill-opacity="0.5"/>
</g>
<defs>
<clipPath id="clip0_239_128">
<rect width="25" height="24" fill="white"/>
</clipPath>
</defs>
</svg>
