<svg width="16" height="12" viewBox="0 0 16 12" fill="none" xmlns="http://www.w3.org/2000/svg">
<path d="M13.5 0C14.8807 0 16 1.11929 16 2.5V9.5C16 10.8807 14.8807 12 13.5 12H2.5C1.11929 12 0 10.8807 0 9.5V2.5C0 1.11929 1.11929 0 2.5 0H13.5ZM13.7646 3.22656C13.6134 2.99553 13.3033 2.93078 13.0723 3.08203L7.99609 6.40527L2.76855 3.07812C2.53564 2.92991 2.22642 2.99862 2.07812 3.23145C1.9299 3.46437 1.99858 3.77359 2.23145 3.92188L8.00391 7.5957L13.6201 3.91895C13.8511 3.76775 13.9157 3.45757 13.7646 3.22656Z" fill="#222222" fill-opacity="0.5"/>
</svg>
