<svg width="42" height="42" viewBox="0 0 42 42" fill="none" xmlns="http://www.w3.org/2000/svg">
<path d="M9.96078 7.32252C10.3491 6.38017 11.2425 5.80096 12.0693 6.39696C13.6206 7.51522 15.7192 10.0417 17.1956 12.6002C18.1182 14.199 17.0021 16.0334 15.1754 16.2995L10.9059 16.9213C8.60494 17.2564 6.81396 14.9596 7.69982 12.8097L9.96078 7.32252Z" fill="white"/>
<ellipse cx="9.13171" cy="11.5928" rx="2.70884" ry="6.05477" transform="rotate(20.8086 9.13171 11.5928)" fill="white"/>
<path fill-rule="evenodd" clip-rule="evenodd" d="M21.0364 8.15369C29.4123 8.15369 36.2022 14.9437 36.2022 23.3195V37.8462C36.2022 40.9297 32.8895 42.879 30.194 41.3815L29.5833 41.054C27.8995 40.1913 26.5773 39.9072 24.7151 40.8614L24.3806 41.0428C22.4235 42.1611 20.0457 42.2232 18.0418 41.2292L17.6922 41.0428C15.54 39.813 14.0415 40.1798 11.8789 41.3815C9.18327 42.879 5.87061 40.9297 5.87061 37.8462V23.3195C5.87061 14.9437 12.6606 8.15369 21.0364 8.15369ZM15.1386 19.9493C13.7426 19.9493 12.611 21.081 12.611 22.477C12.611 23.8729 13.7426 25.0046 15.1386 25.0046C16.5346 25.0046 17.6662 23.8729 17.6662 22.477C17.6662 21.081 16.5346 19.9493 15.1386 19.9493ZM26.9342 19.9493C25.5383 19.9493 24.4066 21.081 24.4066 22.477C24.4066 23.8729 25.5383 25.0046 26.9342 25.0046C28.3302 25.0046 29.4619 23.8729 29.4619 22.477C29.4619 21.081 28.3302 19.9493 26.9342 19.9493Z" fill="white"/>
<path d="M32.0397 7.32252C31.6514 6.38017 30.758 5.80096 29.9312 6.39696C28.3799 7.51522 26.2813 10.0417 24.8049 12.6002C23.8823 14.199 24.9984 16.0334 26.825 16.2995L31.0946 16.9213C33.3955 17.2564 35.1865 14.9596 34.3007 12.8097L32.0397 7.32252Z" fill="white"/>
<ellipse cx="2.70884" cy="6.05477" rx="2.70884" ry="6.05477" transform="matrix(-0.934773 0.355247 0.355247 0.934773 33.2505 4.9707)" fill="white"/>
<path d="M31.9319 28.3748L27.7222 28.8279L27.7524 29.3532L31.9621 28.8988L31.9319 28.3748Z" fill="#A1BC98"/>
<path d="M31.9621 30.8534L27.7642 30.3317L27.7222 30.7883L31.9206 31.3101L31.9621 30.8534Z" fill="#A1BC98"/>
<path d="M8.80908 30.8534L8.85054 31.3101L13.049 30.7883L13.0071 30.3317L8.80908 30.8534Z" fill="#A1BC98"/>
<path d="M8.80566 28.8988L13.0158 29.3532L13.0456 28.8279L8.83533 28.3748L8.80566 28.8988Z" fill="#A1BC98"/>
<rect x="5.87061" y="13.6982" width="4.56605" height="12.7197" fill="white"/>
<rect x="31.6362" y="13.6982" width="4.56605" height="12.7197" fill="white"/>
</svg>
