<svg width="28" height="28" viewBox="0 0 28 28" fill="none" xmlns="http://www.w3.org/2000/svg">
<path fill-rule="evenodd" clip-rule="evenodd" d="M15.8175 25.5862H13.1476C8.98798 25.5862 6.90816 25.5862 5.48999 24.3651C4.0718 23.144 3.77767 21.0998 3.18941 17.0115L2.85297 14.6734C2.39502 11.4906 2.16605 9.89934 2.81833 8.53876C3.47061 7.17816 4.85897 6.35113 7.6357 4.69704L9.30706 3.70142C11.8286 2.19934 13.0894 1.4483 14.4825 1.4483C15.8757 1.4483 17.1365 2.19934 19.6579 3.70142L21.3294 4.69704C24.1061 6.35113 25.4945 7.17816 26.1467 8.53876C26.799 9.89934 26.5701 11.4906 26.1121 14.6734L25.7757 17.0115C25.1873 21.0998 24.8932 23.144 23.4751 24.3651C22.0569 25.5862 19.9771 25.5862 15.8175 25.5862ZM10.1348 17.8056C10.4325 17.404 10.9994 17.3197 11.401 17.6175C12.2801 18.2689 13.3411 18.6463 14.4827 18.6463C15.6243 18.6463 16.6852 18.2689 17.5643 17.6175C17.966 17.3197 18.5329 17.404 18.8305 17.8056C19.1282 18.2071 19.044 18.7741 18.6423 19.0718C17.4688 19.9417 16.0335 20.4567 14.4827 20.4567C12.9318 20.4567 11.4966 19.9417 10.323 19.0718C9.92134 18.7741 9.83709 18.2071 10.1348 17.8056Z" fill="white" fill-opacity="0.5"/>
</svg>
