<svg width="28" height="28" viewBox="0 0 28 28" fill="none" xmlns="http://www.w3.org/2000/svg">
<path d="M21.875 3.50061H20.125V2.62561C20.125 2.39355 20.0328 2.17099 19.8687 2.00689C19.7046 1.8428 19.4821 1.75061 19.25 1.75061C19.0179 1.75061 18.7954 1.8428 18.6313 2.00689C18.4672 2.17099 18.375 2.39355 18.375 2.62561V3.50061H14.875V2.62561C14.875 2.39355 14.7828 2.17099 14.6187 2.00689C14.4546 1.8428 14.2321 1.75061 14 1.75061C13.7679 1.75061 13.5454 1.8428 13.3813 2.00689C13.2172 2.17099 13.125 2.39355 13.125 2.62561V3.50061H9.625V2.62561C9.625 2.39355 9.53281 2.17099 9.36872 2.00689C9.20462 1.8428 8.98206 1.75061 8.75 1.75061C8.51794 1.75061 8.29538 1.8428 8.13128 2.00689C7.96719 2.17099 7.875 2.39355 7.875 2.62561V3.50061H6.125C5.66103 3.50114 5.21622 3.68569 4.88815 4.01376C4.56008 4.34183 4.37553 4.78664 4.375 5.25061V21.8756C4.37606 22.8035 4.74515 23.6932 5.4013 24.3493C6.05745 25.0055 6.94707 25.3745 7.875 25.3756H20.125C21.0529 25.3745 21.9426 25.0055 22.5987 24.3493C23.2548 23.6932 23.6239 22.8035 23.625 21.8756V5.25061C23.6245 4.78664 23.4399 4.34183 23.1119 4.01376C22.7838 3.68569 22.339 3.50114 21.875 3.50061ZM17.5 18.3756H10.5C10.2679 18.3756 10.0454 18.2834 9.88128 18.1193C9.71719 17.9552 9.625 17.7327 9.625 17.5006C9.625 17.2685 9.71719 17.046 9.88128 16.8819C10.0454 16.7178 10.2679 16.6256 10.5 16.6256H17.5C17.7321 16.6256 17.9546 16.7178 18.1187 16.8819C18.2828 17.046 18.375 17.2685 18.375 17.5006C18.375 17.7327 18.2828 17.9552 18.1187 18.1193C17.9546 18.2834 17.7321 18.3756 17.5 18.3756ZM17.5 14.8756H10.5C10.2679 14.8756 10.0454 14.7834 9.88128 14.6193C9.71719 14.4552 9.625 14.2327 9.625 14.0006C9.625 13.7685 9.71719 13.546 9.88128 13.3819C10.0454 13.2178 10.2679 13.1256 10.5 13.1256H17.5C17.7321 13.1256 17.9546 13.2178 18.1187 13.3819C18.2828 13.546 18.375 13.7685 18.375 14.0006C18.375 14.2327 18.2828 14.4552 18.1187 14.6193C17.9546 14.7834 17.7321 14.8756 17.5 14.8756Z" fill="white" fill-opacity="0.5"/>
</svg>
