<svg width="23" height="23" viewBox="0 0 23 23" fill="none" xmlns="http://www.w3.org/2000/svg">
<path fill-rule="evenodd" clip-rule="evenodd" d="M17.25 2.63541C16.8531 2.63541 16.5313 2.31361 16.5313 1.91666C16.5313 1.51971 16.8531 1.19791 17.25 1.19791H21.0833C21.3741 1.19791 21.6361 1.37302 21.7474 1.64161C21.8586 1.91018 21.7972 2.21933 21.5916 2.42489L18.9853 5.03124H21.0833C21.4803 5.03124 21.8021 5.35304 21.8021 5.74999C21.8021 6.14694 21.4803 6.46874 21.0833 6.46874H17.25C16.9594 6.46874 16.6972 6.29362 16.586 6.02504C16.4747 5.75647 16.5362 5.44732 16.7418 5.24176L19.3482 2.63541H17.25ZM12.9375 8.38541C12.5406 8.38541 12.2188 8.06361 12.2188 7.66666C12.2188 7.26971 12.5406 6.94791 12.9375 6.94791H15.8125C16.1033 6.94791 16.3653 7.12302 16.4765 7.3916C16.5878 7.66018 16.5264 7.96933 16.3208 8.17489L14.6728 9.82291H15.8125C16.2095 9.82291 16.5313 10.1447 16.5313 10.5417C16.5313 10.9386 16.2095 11.2604 15.8125 11.2604H12.9375C12.6469 11.2604 12.3847 11.0853 12.2735 10.8167C12.1622 10.5482 12.2237 10.239 12.4293 10.0335L14.0774 8.38541H12.9375Z" fill="#222222"/>
<path d="M11.4998 21.0833C16.7925 21.0833 21.0832 16.7927 21.0832 11.5C21.0832 11.0566 20.4186 10.9833 20.1892 11.3628C19.0984 13.1681 17.1171 14.375 14.854 14.375C11.4137 14.375 8.62484 11.5861 8.62484 8.14582C8.62484 5.88267 9.83176 3.90141 11.6371 2.81055C12.0166 2.58123 11.9433 1.91666 11.4998 1.91666C6.20711 1.91666 1.9165 6.20726 1.9165 11.5C1.9165 16.7927 6.20711 21.0833 11.4998 21.0833Z" fill="#222222"/>
</svg>
