<svg width="22" height="22" viewBox="0 0 22 22" fill="none" xmlns="http://www.w3.org/2000/svg">
<path fill-rule="evenodd" clip-rule="evenodd" d="M2.33305 8.00255C1.8335 8.98298 1.8335 10.2664 1.8335 12.8333C1.8335 15.4003 1.8335 16.6837 2.33305 17.6642C2.77247 18.5266 3.47363 19.2277 4.33604 19.6671C5.31647 20.1667 6.59992 20.1667 9.16683 20.1667H12.8335C15.4004 20.1667 16.6839 20.1667 17.6643 19.6671C18.5267 19.2277 19.2279 18.5266 19.6672 17.6642C20.1668 16.6837 20.1668 15.4003 20.1668 12.8333C20.1668 10.2664 20.1668 8.98298 19.6672 8.00255C19.2279 7.14014 18.5267 6.43897 17.6643 5.99956C16.6839 5.5 15.4004 5.5 12.8335 5.5H9.16683C6.59992 5.5 5.31647 5.5 4.33604 5.99956C3.47363 6.43897 2.77247 7.14014 2.33305 8.00255ZM13.8047 11.4579C14.0575 11.1746 14.033 10.74 13.7497 10.4872C13.4665 10.2343 13.0319 10.2589 12.779 10.5421L10.018 13.6344L9.22137 12.7421C8.96845 12.4589 8.53384 12.4343 8.25062 12.6872C7.96739 12.94 7.94279 13.3746 8.19567 13.6579L9.50517 15.1245C9.63561 15.2707 9.82215 15.3542 10.018 15.3542C10.2138 15.3542 10.4004 15.2707 10.5308 15.1245L13.8047 11.4579Z" fill="#222222"/>
<path d="M18.8237 3.17577C17.4814 1.83334 15.3207 1.83334 10.9995 1.83334C6.67831 1.83334 4.51771 1.83334 3.17529 3.17577C2.48092 3.87013 2.14572 4.7834 1.98389 6.10132C2.47033 5.55989 3.05483 5.10885 3.71116 4.77443C4.42752 4.40942 5.19458 4.26141 6.04389 4.19202C6.86443 4.12498 7.87406 4.12499 9.10859 4.12501H12.8904C14.125 4.12499 15.1346 4.12498 15.9551 4.19202C16.8045 4.26141 17.5716 4.40942 18.2878 4.77443C18.9442 5.10885 19.5287 5.55989 20.0151 6.10132C19.8533 4.7834 19.5181 3.87013 18.8237 3.17577Z" fill="#222222"/>
</svg>
